<?xml version="1.0" standalone="no"?><!DOCTYPE svg PUBLIC "-//W3C//DTD SVG 1.1//EN" "http://www.w3.org/Graphics/SVG/1.1/DTD/svg11.dtd"><svg t="1704334207264" class="icon" viewBox="0 0 1083 1024" version="1.1" xmlns="http://www.w3.org/2000/svg" p-id="17863" xmlns:xlink="http://www.w3.org/1999/xlink" width="211.5234375" height="200"><path d="M228.52042 212.426053L292.718335 21.219753S31.372589 239.652629 26.541014 515.623681zM811.541301 795.397966L1002.812893 731.265343S784.331049 992.611088 508.359996 997.42634z" fill="#A6ED9A" p-id="17864"></path><path d="M814.658973 209.275736c116.790257 116.790257 150.170561 437.567635-87.213186 674.918736-162.282144 162.282144-419.057481 155.932541-581.339624-6.365926s-168.64807-419.057481-6.365926-581.339625c235.065897-235.049574 558.128479-203.98712 674.918736-87.213185z" fill="#EF3377" p-id="17865"></path><path d="M632.446584 583.526891s84.519909-18.167373 134.272069-134.272069c46.716103 138.091625-41.868205 226.675933-41.868205 226.675933M386.281123 922.112539a357.014187 357.014187 0 0 1 13.9071-294.872956l3.264578-6.316957-6.316958 3.264577a357.014187 357.014187 0 0 1-294.921924 13.874454M726.792871 150.741862s171.390315-27.128638 268.201359-121.801383C907.650461 135.12086 873.27446 297.076545 873.27446 297.076545zM911.404725 439.624319l150.8398-150.8398s-41.166321 209.536902-183.2897 351.66028zM400.286161 527.702617S421.734434 439.085663 534.55823 393.381579c-138.091625-46.716103-226.675933 41.868205-226.675933 41.868206M305.515478 256.612108l54.110371-54.110371A609.447636 609.447636 0 0 1 710.323078 29.299582l-48.805432 37.542641a548.122549 548.122549 0 0 0-132.982561 147.803743z" fill="#A6ED9A" p-id="17866"></path><path d="M208.802372 903.928842a21.219753 21.219753 0 1 0 4.309242 29.675009 21.121816 21.121816 0 0 0-4.390857-29.7403zM628.790257 562.682564l7.296331 41.688654c3.16664-0.554978 67.462492-12.797143 122.160487-95.521535a200.771511 200.771511 0 0 1-13.825485 95.799024c-14.364141 35.583894-34.392323 56.183377-34.53923 56.313961a21.219753 21.219753 0 1 0 29.919853 29.919852c3.999107-3.999107 97.30073-99.569611 46.944623-248.418019a21.219753 21.219753 0 0 0-39.354481-1.877132c-47.956642 107.078139-115.892498 121.55654-118.830618 122.127841zM543.862276 412.430389a21.219753 21.219753 0 0 0-2.530048-39.044346c-148.848408-50.339784-244.418912 42.961839-248.418019 46.944623a21.219753 21.219753 0 0 0 29.870884 29.985144c0.212198-0.195875 20.795358-20.224057 56.379252-34.588198a201.081646 201.081646 0 0 1 97.937322-13.613288c-84.193452 56.93423-97.023241 118.569452-97.610865 121.589186l41.558071 7.998215v0.22852c0.554978-2.709599 15.588357-67.005452 122.813403-119.499856z" fill="" p-id="17867"></path><path d="M1083.007237 292.865241a21.219753 21.219753 0 0 0-35.7308-19.04881l-126.535021 126.535021a455.18003 455.18003 0 0 0-26.116619-102.05069c5.353907-23.015271 40.25224-162.967705 116.708643-255.910224a21.219753 21.219753 0 0 0-31.144069-28.565053c-85.499283 83.654796-236.502311 112.464692-254.865559 115.712947a443.47652 443.47652 0 0 0-79.574075-22.215449q13.874454-12.307457 28.66299-23.717155l48.805432-37.542641a21.219753 21.219753 0 0 0-15.686294-37.754837 633.915644 633.915644 0 0 0-269.00118 102.132304c-0.457041 0-0.930405 0.11426-1.387445 0.212198a597.71148 597.71148 0 0 0-174.050946 65.422131l49.686869-148.195492A21.219753 21.219753 0 0 0 279.12137 4.896866c-2.742245 2.301527-68.033793 57.277011-134.712788 147.395671-61.700513 83.442599-135.741129 213.633947-138.956738 360.980648A424.052284 424.052284 0 0 0 0 580.833615c0 111.354736 42.961839 218.449198 121.083177 301.581662a21.219753 21.219753 0 1 0 30.833933-28.989447c-146.481589-155.867249-145.273695-393.936558 2.791214-541.919852 57.880958-57.880958 124.984347-102.328179 197.506934-131.284981-2.513725 2.43211-5.027449 4.896866-7.508528 7.361622L290.547391 241.578729a21.219753 21.219753 0 1 0 29.919852 29.919852l54.11037-54.11037a591.818918 591.818918 0 0 1 250.801161-148.538273 566.959161 566.959161 0 0 0-114.913125 134.680141 21.219753 21.219753 0 0 0 36.07358 22.133835 526.151943 526.151943 0 0 1 61.423024-81.206363c80.439188 9.255077 150.170561 38.211879 191.728632 79.786272 57.32598 57.32598 89.139287 163.130934 83.034527 276.134281-7.328976 135.479963-67.78895 266.389518-170.247713 368.897249-117.932859 117.932859-297.909013 145.747059-447.83473 69.209041A21.219753 21.219753 0 0 0 245.398285 976.108649a428.72063 428.72063 0 0 0 257.901616 43.484171c2.350496-0.342781 4.700991-0.701884 7.051487-1.093633 147.460962-3.101349 277.831862-77.190933 361.290784-138.956738 90.11866-66.662671 145.110466-131.954219 147.39567-134.712787a21.219753 21.219753 0 0 0-22.966302-33.641471l-147.999617 49.621577a607.570504 607.570504 0 0 0 48.070902-107.731055c143.200689-144.865623 185.150508-351.448082 186.864412-360.213472z m-958.153473-11.328084q-13.596965 13.596965-25.773839 28.173303a776.398125 776.398125 0 0 1 78.823222-131.382918 949.812478 949.812478 0 0 1 66.923837-80.716677L208.524883 205.668378a21.219753 21.219753 0 0 0-1.060988 5.794625 652.556381 652.556381 0 0 0-82.675423 70.074154z m801.58434 173.022603l93.415883-93.415883c-18.526477 54.436829-50.405075 130.028119-101.054994 199.792139a564.559696 564.559696 0 0 0 6.186374-58.191093c0.865113-15.898492 1.012019-31.682724 0.489686-47.336373 0.293812-0.277489 0.603947-0.538655 0.897759-0.816144zM785.392036 159.392993c36.253132-9.663149 85.613543-25.790162 133.619154-51.041668-25.006663 48.968661-42.145695 97.627188-52.771894 132.688749A260.333727 260.333727 0 0 0 829.62706 194.242357a254.97982 254.97982 0 0 0-44.235024-34.849364z m32.874295 656.065801l108.106481-36.253132a949.763509 949.763509 0 0 1-80.716677 66.923837 776.300188 776.300188 0 0 1-131.480855 78.872191q14.576338-12.242165 28.222272-25.855454a658.008225 658.008225 0 0 0 70.074154-82.642777 21.105493 21.105493 0 0 0 5.794625-1.044665z" fill="" p-id="17868"></path><path d="M110.048905 618.392578a21.219753 21.219753 0 1 0-15.669972 39.321835 378.136003 378.136003 0 0 0 267.548443 4.684669 378.184971 378.184971 0 0 0 4.684669 267.548442 21.219753 21.219753 0 0 0 39.321835-15.669971 335.827079 335.827079 0 0 1 13.058309-277.407467l3.264578-6.316957a21.219753 21.219753 0 0 0-28.483438-28.483438l-6.300635 3.264577a335.843402 335.843402 0 0 1-277.423789 13.05831z" fill="" p-id="17869"></path><path d="M177.772564 395.209743c19.375267-23.896707 47.009915-44.071795 79.982146-58.354322 8.700099-3.770587 14.151943-13.858131 14.151943-24.631236a31.650078 31.650078 0 0 0-1.207893-8.651131c-3.868524-13.596965-15.963784-20.74639-26.981733-15.963783-38.864794 16.861542-72.000255 41.296904-95.815347 70.678101-16.828897 20.74639-31.470526 46.9283-43.516817 77.778557-5.076418 12.976695-0.652915 28.581375 9.875347 34.849364s23.1785 0.799821 28.254917-12.193197c9.924315-25.545318 21.807377-46.9283 35.257437-63.512353zM92.175344 495.171103l-0.995697-0.22852a21.219753 21.219753 0 1 0 0.995697 0.22852z" fill="#FFFFFF" p-id="17870"></path></svg>